<svg xmlns="http://www.w3.org/2000/svg" xmlns:xlink="http://www.w3.org/1999/xlink" width="200" zoomAndPan="magnify" viewBox="0 0 150 149.999998" height="200" preserveAspectRatio="xMidYMid meet" version="1.0"><defs><clipPath id="ff4e2cbcd6"><path d="M 21.449219 40.792969 L 128.699219 40.792969 L 128.699219 77 L 21.449219 77 Z M 21.449219 40.792969 " clip-rule="nonzero"/></clipPath><clipPath id="5032bb5400"><path d="M 21.449219 51 L 128.699219 51 L 128.699219 101 L 21.449219 101 Z M 21.449219 51 " clip-rule="nonzero"/></clipPath><clipPath id="0862f95a6b"><path d="M 21.449219 76 L 128.699219 76 L 128.699219 112.042969 L 21.449219 112.042969 Z M 21.449219 76 " clip-rule="nonzero"/></clipPath></defs><path fill="#ffffff" d="M 32.65625 41.277344 L 117.347656 41.277344 C 118.046875 41.277344 118.738281 41.347656 119.421875 41.484375 C 120.109375 41.621094 120.773438 41.820312 121.421875 42.089844 C 122.066406 42.355469 122.679688 42.683594 123.261719 43.074219 C 123.84375 43.460938 124.382812 43.902344 124.875 44.398438 C 125.371094 44.890625 125.8125 45.429688 126.199219 46.011719 C 126.589844 46.59375 126.917969 47.207031 127.183594 47.851562 C 127.453125 48.5 127.652344 49.164062 127.789062 49.851562 C 127.925781 50.535156 127.996094 51.226562 127.996094 51.925781 C 127.996094 52.625 127.925781 53.320312 127.789062 54.003906 C 127.652344 54.691406 127.453125 55.355469 127.183594 56.003906 C 126.917969 56.648438 126.589844 57.261719 126.199219 57.84375 C 125.8125 58.425781 125.371094 58.964844 124.875 59.457031 C 124.382812 59.953125 123.84375 60.394531 123.261719 60.78125 C 122.679688 61.171875 122.066406 61.5 121.421875 61.765625 C 120.773438 62.03125 120.109375 62.234375 119.421875 62.371094 C 118.738281 62.507812 118.046875 62.578125 117.347656 62.578125 L 32.65625 62.578125 C 31.957031 62.578125 31.261719 62.507812 30.578125 62.371094 C 29.890625 62.234375 29.226562 62.03125 28.578125 61.765625 C 27.933594 61.5 27.320312 61.171875 26.738281 60.78125 C 26.15625 60.394531 25.621094 59.953125 25.125 59.457031 C 24.628906 58.964844 24.1875 58.425781 23.800781 57.84375 C 23.414062 57.261719 23.085938 56.648438 22.816406 56.003906 C 22.550781 55.355469 22.347656 54.691406 22.210938 54.003906 C 22.074219 53.320312 22.007812 52.625 22.007812 51.925781 C 22.007812 51.226562 22.074219 50.535156 22.210938 49.851562 C 22.347656 49.164062 22.550781 48.5 22.816406 47.851562 C 23.085938 47.207031 23.414062 46.59375 23.800781 46.011719 C 24.1875 45.429688 24.628906 44.890625 25.125 44.398438 C 25.621094 43.902344 26.15625 43.460938 26.738281 43.074219 C 27.320312 42.683594 27.933594 42.355469 28.578125 42.089844 C 29.226562 41.820312 29.890625 41.621094 30.578125 41.484375 C 31.261719 41.347656 31.957031 41.277344 32.65625 41.277344 Z M 32.65625 41.277344 " fill-opacity="1" fill-rule="nonzero"/><g clip-path="url(#ff4e2cbcd6)"><path stroke-linecap="butt" transform="matrix(0.19414, 0, 0, 0.19414, 21.520651, 40.793726)" fill="none" stroke-linejoin="miter" d="M 57.358667 2.49108 L 493.597994 2.49108 C 497.199619 2.49108 500.761003 2.853255 504.282145 3.557483 C 507.823408 4.261712 511.243946 5.287873 514.584001 6.676209 C 517.903935 8.044424 521.062902 9.734572 524.060903 11.746654 C 527.058904 13.738614 529.835576 16.012266 532.370799 18.567609 C 534.926142 21.102831 537.199794 23.879503 539.191754 26.877504 C 541.203835 29.875505 542.893983 33.034473 544.262199 36.354407 C 545.650535 39.694462 546.676696 43.115 547.380924 46.656263 C 548.085153 50.177405 548.447327 53.738788 548.447327 57.340414 C 548.447327 60.942039 548.085153 64.523544 547.380924 68.044686 C 546.676696 71.585949 545.650535 75.006487 544.262199 78.346542 C 542.893983 81.666476 541.203835 84.825443 539.191754 87.823444 C 537.199794 90.821445 534.926142 93.598117 532.370799 96.13334 C 529.835576 98.688683 527.058904 100.962334 524.060903 102.954295 C 521.062902 104.966376 517.903935 106.656524 514.584001 108.02474 C 511.243946 109.392955 507.823408 110.439237 504.282145 111.143465 C 500.761003 111.847694 497.199619 112.209868 493.597994 112.209868 L 57.358667 112.209868 C 53.757041 112.209868 50.175537 111.847694 46.654395 111.143465 C 43.113132 110.439237 39.692594 109.392955 36.352539 108.02474 C 33.032605 106.656524 29.873637 104.966376 26.875636 102.954295 C 23.877635 100.962334 21.121084 98.688683 18.565741 96.13334 C 16.010398 93.598117 13.736746 90.821445 11.744786 87.823444 C 9.752825 84.825443 8.062677 81.666476 6.674341 78.346542 C 5.306126 75.006487 4.259843 71.585949 3.555615 68.044686 C 2.851387 64.523544 2.509333 60.942039 2.509333 57.340414 C 2.509333 53.738788 2.851387 50.177405 3.555615 46.656263 C 4.259843 43.115 5.306126 39.694462 6.674341 36.354407 C 8.062677 33.034473 9.752825 29.875505 11.744786 26.877504 C 13.736746 23.879503 16.010398 21.102831 18.565741 18.567609 C 21.121084 16.012266 23.877635 13.738614 26.875636 11.746654 C 29.873637 9.734572 33.032605 8.044424 36.352539 6.676209 C 39.692594 5.287873 43.113132 4.261712 46.654395 3.557483 C 50.175537 2.853255 53.757041 2.49108 57.358667 2.49108 Z M 57.358667 2.49108 " stroke="#913275" stroke-width="5" stroke-opacity="1" stroke-miterlimit="10"/></g><path fill="#000000" d="M 42.007812 51.925781 C 42.007812 52.519531 41.949219 53.109375 41.835938 53.691406 C 41.71875 54.273438 41.546875 54.839844 41.320312 55.386719 C 41.09375 55.9375 40.8125 56.457031 40.484375 56.949219 C 40.15625 57.445312 39.78125 57.902344 39.359375 58.320312 C 38.941406 58.742188 38.484375 59.113281 37.988281 59.445312 C 37.496094 59.773438 36.976562 60.054688 36.425781 60.28125 C 35.878906 60.507812 35.3125 60.679688 34.730469 60.796875 C 34.148438 60.910156 33.5625 60.96875 32.96875 60.96875 C 32.375 60.96875 31.785156 60.910156 31.203125 60.796875 C 30.621094 60.679688 30.054688 60.507812 29.507812 60.28125 C 28.957031 60.054688 28.4375 59.773438 27.945312 59.445312 C 27.449219 59.113281 26.992188 58.742188 26.574219 58.320312 C 26.15625 57.902344 25.78125 57.445312 25.449219 56.949219 C 25.121094 56.457031 24.839844 55.9375 24.613281 55.386719 C 24.386719 54.839844 24.214844 54.273438 24.101562 53.691406 C 23.984375 53.109375 23.925781 52.519531 23.925781 51.925781 C 23.925781 51.335938 23.984375 50.746094 24.101562 50.164062 C 24.214844 49.582031 24.386719 49.015625 24.613281 48.46875 C 24.839844 47.917969 25.121094 47.398438 25.449219 46.90625 C 25.78125 46.410156 26.15625 45.953125 26.574219 45.535156 C 26.992188 45.113281 27.449219 44.738281 27.945312 44.410156 C 28.4375 44.082031 28.957031 43.800781 29.507812 43.574219 C 30.054688 43.347656 30.621094 43.175781 31.203125 43.058594 C 31.785156 42.945312 32.375 42.886719 32.96875 42.886719 C 33.5625 42.886719 34.148438 42.945312 34.730469 43.058594 C 35.3125 43.175781 35.878906 43.347656 36.425781 43.574219 C 36.976562 43.800781 37.496094 44.082031 37.988281 44.410156 C 38.484375 44.738281 38.941406 45.113281 39.359375 45.535156 C 39.78125 45.953125 40.15625 46.410156 40.484375 46.90625 C 40.8125 47.398438 41.09375 47.917969 41.320312 48.46875 C 41.546875 49.015625 41.71875 49.582031 41.835938 50.164062 C 41.949219 50.746094 42.007812 51.335938 42.007812 51.925781 Z M 42.007812 51.925781 " fill-opacity="1" fill-rule="nonzero"/><path fill="#ffffff" d="M 32.65625 65.714844 L 117.347656 65.714844 C 118.046875 65.714844 118.738281 65.785156 119.421875 65.921875 C 120.109375 66.054688 120.773438 66.257812 121.421875 66.527344 C 122.066406 66.792969 122.679688 67.121094 123.261719 67.511719 C 123.84375 67.898438 124.382812 68.339844 124.875 68.835938 C 125.371094 69.328125 125.8125 69.867188 126.199219 70.449219 C 126.589844 71.03125 126.917969 71.644531 127.183594 72.289062 C 127.453125 72.933594 127.652344 73.601562 127.789062 74.285156 C 127.925781 74.972656 127.996094 75.664062 127.996094 76.363281 C 127.996094 77.0625 127.925781 77.753906 127.789062 78.441406 C 127.652344 79.128906 127.453125 79.792969 127.183594 80.4375 C 126.917969 81.085938 126.589844 81.699219 126.199219 82.28125 C 125.8125 82.863281 125.371094 83.398438 124.875 83.894531 C 124.382812 84.386719 123.84375 84.828125 123.261719 85.21875 C 122.679688 85.605469 122.066406 85.933594 121.421875 86.203125 C 120.773438 86.46875 120.109375 86.671875 119.421875 86.808594 C 118.738281 86.945312 118.046875 87.011719 117.347656 87.011719 L 32.65625 87.011719 C 31.957031 87.011719 31.261719 86.945312 30.578125 86.808594 C 29.890625 86.671875 29.226562 86.46875 28.578125 86.203125 C 27.933594 85.933594 27.320312 85.605469 26.738281 85.21875 C 26.15625 84.828125 25.621094 84.386719 25.125 83.894531 C 24.628906 83.398438 24.1875 82.863281 23.800781 82.28125 C 23.414062 81.699219 23.085938 81.085938 22.816406 80.4375 C 22.550781 79.792969 22.347656 79.128906 22.210938 78.441406 C 22.074219 77.753906 22.007812 77.0625 22.007812 76.363281 C 22.007812 75.664062 22.074219 74.972656 22.210938 74.285156 C 22.347656 73.601562 22.550781 72.933594 22.816406 72.289062 C 23.085938 71.644531 23.414062 71.03125 23.800781 70.449219 C 24.1875 69.867188 24.628906 69.328125 25.125 68.835938 C 25.621094 68.339844 26.15625 67.898438 26.738281 67.511719 C 27.320312 67.121094 27.933594 66.792969 28.578125 66.527344 C 29.226562 66.257812 29.890625 66.054688 30.578125 65.921875 C 31.261719 65.785156 31.957031 65.714844 32.65625 65.714844 Z M 32.65625 65.714844 " fill-opacity="1" fill-rule="nonzero"/><g clip-path="url(#5032bb5400)"><path stroke-linecap="butt" transform="matrix(0.19414, 0, 0, 0.19414, 21.520651, 40.793726)" fill="none" stroke-linejoin="miter" d="M 57.358667 128.366881 L 493.597994 128.366881 C 497.199619 128.366881 500.761003 128.729055 504.282145 129.433284 C 507.823408 130.117391 511.243946 131.163673 514.584001 132.552009 C 517.903935 133.920225 521.062902 135.610373 524.060903 137.622454 C 527.058904 139.614415 529.835576 141.888066 532.370799 144.443409 C 534.926142 146.978632 537.199794 149.755304 539.191754 152.753305 C 541.203835 155.751306 542.893983 158.910273 544.262199 162.230207 C 545.650535 165.550141 546.676696 168.9908 547.380924 172.511942 C 548.085153 176.053205 548.447327 179.614589 548.447327 183.216214 C 548.447327 186.81784 548.085153 190.379223 547.380924 193.920486 C 546.676696 197.461749 545.650535 200.882287 544.262199 204.202221 C 542.893983 207.542276 541.203835 210.701244 539.191754 213.699245 C 537.199794 216.697246 534.926142 219.453797 532.370799 222.00914 C 529.835576 224.544362 527.058904 226.818014 524.060903 228.830095 C 521.062902 230.822056 517.903935 232.512204 514.584001 233.90054 C 511.243946 235.268755 507.823408 236.315037 504.282145 237.019266 C 500.761003 237.723494 497.199619 238.065548 493.597994 238.065548 L 57.358667 238.065548 C 53.757041 238.065548 50.175537 237.723494 46.654395 237.019266 C 43.113132 236.315037 39.692594 235.268755 36.352539 233.90054 C 33.032605 232.512204 29.873637 230.822056 26.875636 228.830095 C 23.877635 226.818014 21.121084 224.544362 18.565741 222.00914 C 16.010398 219.453797 13.736746 216.697246 11.744786 213.699245 C 9.752825 210.701244 8.062677 207.542276 6.674341 204.202221 C 5.306126 200.882287 4.259843 197.461749 3.555615 193.920486 C 2.851387 190.379223 2.509333 186.81784 2.509333 183.216214 C 2.509333 179.614589 2.851387 176.053205 3.555615 172.511942 C 4.259843 168.9908 5.306126 165.550141 6.674341 162.230207 C 8.062677 158.910273 9.752825 155.751306 11.744786 152.753305 C 13.736746 149.755304 16.010398 146.978632 18.565741 144.443409 C 21.121084 141.888066 23.877635 139.614415 26.875636 137.622454 C 29.873637 135.610373 33.032605 133.920225 36.352539 132.552009 C 39.692594 131.163673 43.113132 130.117391 46.654395 129.433284 C 50.175537 128.729055 53.757041 128.366881 57.358667 128.366881 Z M 57.358667 128.366881 " stroke="#913275" stroke-width="5" stroke-opacity="1" stroke-miterlimit="10"/></g><path fill="#004aad" d="M 42.007812 76.363281 C 42.007812 76.957031 41.949219 77.546875 41.835938 78.128906 C 41.71875 78.710938 41.546875 79.277344 41.320312 79.824219 C 41.09375 80.371094 40.8125 80.894531 40.484375 81.386719 C 40.15625 81.878906 39.78125 82.335938 39.359375 82.757812 C 38.941406 83.175781 38.484375 83.550781 37.988281 83.882812 C 37.496094 84.210938 36.976562 84.488281 36.425781 84.71875 C 35.878906 84.945312 35.3125 85.117188 34.730469 85.230469 C 34.148438 85.347656 33.5625 85.40625 32.96875 85.40625 C 32.375 85.40625 31.785156 85.347656 31.203125 85.230469 C 30.621094 85.117188 30.054688 84.945312 29.507812 84.71875 C 28.957031 84.488281 28.4375 84.210938 27.945312 83.882812 C 27.449219 83.550781 26.992188 83.175781 26.574219 82.757812 C 26.15625 82.335938 25.78125 81.878906 25.449219 81.386719 C 25.121094 80.894531 24.839844 80.371094 24.613281 79.824219 C 24.386719 79.277344 24.214844 78.710938 24.101562 78.128906 C 23.984375 77.546875 23.925781 76.957031 23.925781 76.363281 C 23.925781 75.769531 23.984375 75.183594 24.101562 74.601562 C 24.214844 74.019531 24.386719 73.453125 24.613281 72.902344 C 24.839844 72.355469 25.121094 71.835938 25.449219 71.339844 C 25.78125 70.847656 26.15625 70.390625 26.574219 69.972656 C 26.992188 69.550781 27.449219 69.175781 27.945312 68.847656 C 28.4375 68.515625 28.957031 68.238281 29.507812 68.011719 C 30.054688 67.785156 30.621094 67.613281 31.203125 67.496094 C 31.785156 67.378906 32.375 67.324219 32.96875 67.324219 C 33.5625 67.324219 34.148438 67.378906 34.730469 67.496094 C 35.3125 67.613281 35.878906 67.785156 36.425781 68.011719 C 36.976562 68.238281 37.496094 68.515625 37.988281 68.847656 C 38.484375 69.175781 38.941406 69.550781 39.359375 69.972656 C 39.78125 70.390625 40.15625 70.847656 40.484375 71.339844 C 40.8125 71.835938 41.09375 72.355469 41.320312 72.902344 C 41.546875 73.453125 41.71875 74.019531 41.835938 74.601562 C 41.949219 75.183594 42.007812 75.769531 42.007812 76.363281 Z M 42.007812 76.363281 " fill-opacity="1" fill-rule="nonzero"/><path fill="#ffffff" d="M 32.65625 90.152344 L 117.347656 90.152344 C 118.046875 90.152344 118.738281 90.21875 119.421875 90.355469 C 120.109375 90.492188 120.773438 90.695312 121.421875 90.960938 C 122.066406 91.230469 122.679688 91.558594 123.261719 91.945312 C 123.84375 92.335938 124.382812 92.777344 124.875 93.269531 C 125.371094 93.765625 125.8125 94.304688 126.199219 94.882812 C 126.589844 95.464844 126.917969 96.078125 127.183594 96.726562 C 127.453125 97.371094 127.652344 98.039062 127.789062 98.722656 C 127.925781 99.410156 127.996094 100.101562 127.996094 100.800781 C 127.996094 101.5 127.925781 102.191406 127.789062 102.878906 C 127.652344 103.5625 127.453125 104.230469 127.183594 104.875 C 126.917969 105.519531 126.589844 106.136719 126.199219 106.714844 C 125.8125 107.296875 125.371094 107.835938 124.875 108.328125 C 124.382812 108.824219 123.84375 109.265625 123.261719 109.65625 C 122.679688 110.042969 122.066406 110.371094 121.421875 110.636719 C 120.773438 110.90625 120.109375 111.109375 119.421875 111.246094 C 118.738281 111.378906 118.046875 111.449219 117.347656 111.449219 L 32.65625 111.449219 C 31.957031 111.449219 31.261719 111.378906 30.578125 111.246094 C 29.890625 111.109375 29.226562 110.90625 28.578125 110.636719 C 27.933594 110.371094 27.320312 110.042969 26.738281 109.65625 C 26.15625 109.265625 25.621094 108.824219 25.125 108.328125 C 24.628906 107.835938 24.1875 107.296875 23.800781 106.714844 C 23.414062 106.136719 23.085938 105.519531 22.816406 104.875 C 22.550781 104.230469 22.347656 103.5625 22.210938 102.878906 C 22.074219 102.191406 22.007812 101.5 22.007812 100.800781 C 22.007812 100.101562 22.074219 99.410156 22.210938 98.722656 C 22.347656 98.039062 22.550781 97.371094 22.816406 96.726562 C 23.085938 96.078125 23.414062 95.464844 23.800781 94.882812 C 24.1875 94.304688 24.628906 93.765625 25.125 93.269531 C 25.621094 92.777344 26.15625 92.335938 26.738281 91.945312 C 27.320312 91.558594 27.933594 91.230469 28.578125 90.960938 C 29.226562 90.695312 29.890625 90.492188 30.578125 90.355469 C 31.261719 90.21875 31.957031 90.152344 32.65625 90.152344 Z M 32.65625 90.152344 " fill-opacity="1" fill-rule="nonzero"/><g clip-path="url(#0862f95a6b)"><path stroke-linecap="butt" transform="matrix(0.19414, 0, 0, 0.19414, 21.520651, 40.793726)" fill="none" stroke-linejoin="miter" d="M 57.358667 254.242681 L 493.597994 254.242681 C 497.199619 254.242681 500.761003 254.584735 504.282145 255.288963 C 507.823408 255.993192 511.243946 257.039474 514.584001 258.407689 C 517.903935 259.796025 521.062902 261.486173 524.060903 263.478134 C 527.058904 265.490215 529.835576 267.763867 532.370799 270.299089 C 534.926142 272.854432 537.199794 275.631104 539.191754 278.608985 C 541.203835 281.606986 542.893983 284.765953 544.262199 288.106008 C 545.650535 291.425942 546.676696 294.866601 547.380924 298.387743 C 548.085153 301.929006 548.447327 305.490389 548.447327 309.092015 C 548.447327 312.69364 548.085153 316.255024 547.380924 319.796287 C 546.676696 323.317429 545.650535 326.758088 544.262199 330.078022 C 542.893983 333.397956 541.203835 336.577044 539.191754 339.554924 C 537.199794 342.552925 534.926142 345.329597 532.370799 347.86482 C 529.835576 350.420163 527.058904 352.693815 524.060903 354.705896 C 521.062902 356.697856 517.903935 358.388004 514.584001 359.75622 C 511.243946 361.144556 507.823408 362.190838 504.282145 362.895066 C 500.761003 363.579174 497.199619 363.941349 493.597994 363.941349 L 57.358667 363.941349 C 53.757041 363.941349 50.175537 363.579174 46.654395 362.895066 C 43.113132 362.190838 39.692594 361.144556 36.352539 359.75622 C 33.032605 358.388004 29.873637 356.697856 26.875636 354.705896 C 23.877635 352.693815 21.121084 350.420163 18.565741 347.86482 C 16.010398 345.329597 13.736746 342.552925 11.744786 339.554924 C 9.752825 336.577044 8.062677 333.397956 6.674341 330.078022 C 5.306126 326.758088 4.259843 323.317429 3.555615 319.796287 C 2.851387 316.255024 2.509333 312.69364 2.509333 309.092015 C 2.509333 305.490389 2.851387 301.929006 3.555615 298.387743 C 4.259843 294.866601 5.306126 291.425942 6.674341 288.106008 C 8.062677 284.765953 9.752825 281.606986 11.744786 278.608985 C 13.736746 275.631104 16.010398 272.854432 18.565741 270.299089 C 21.121084 267.763867 23.877635 265.490215 26.875636 263.478134 C 29.873637 261.486173 33.032605 259.796025 36.352539 258.407689 C 39.692594 257.039474 43.113132 255.993192 46.654395 255.288963 C 50.175537 254.584735 53.757041 254.242681 57.358667 254.242681 Z M 57.358667 254.242681 " stroke="#913275" stroke-width="5" stroke-opacity="1" stroke-miterlimit="10"/></g><path fill="#ff3131" d="M 42.007812 100.800781 C 42.007812 101.394531 41.949219 101.980469 41.835938 102.5625 C 41.71875 103.144531 41.546875 103.710938 41.320312 104.261719 C 41.09375 104.808594 40.8125 105.328125 40.484375 105.824219 C 40.15625 106.316406 39.78125 106.773438 39.359375 107.195312 C 38.941406 107.613281 38.484375 107.988281 37.988281 108.316406 C 37.496094 108.648438 36.976562 108.925781 36.425781 109.152344 C 35.878906 109.378906 35.3125 109.550781 34.730469 109.667969 C 34.148438 109.785156 33.5625 109.839844 32.96875 109.839844 C 32.375 109.839844 31.785156 109.785156 31.203125 109.667969 C 30.621094 109.550781 30.054688 109.378906 29.507812 109.152344 C 28.957031 108.925781 28.4375 108.648438 27.945312 108.316406 C 27.449219 107.988281 26.992188 107.613281 26.574219 107.195312 C 26.15625 106.773438 25.78125 106.316406 25.449219 105.824219 C 25.121094 105.328125 24.839844 104.808594 24.613281 104.261719 C 24.386719 103.710938 24.214844 103.144531 24.101562 102.5625 C 23.984375 101.980469 23.925781 101.394531 23.925781 100.800781 C 23.925781 100.207031 23.984375 99.617188 24.101562 99.035156 C 24.214844 98.453125 24.386719 97.890625 24.613281 97.339844 C 24.839844 96.792969 25.121094 96.269531 25.449219 95.777344 C 25.78125 95.285156 26.15625 94.828125 26.574219 94.40625 C 26.992188 93.988281 27.449219 93.613281 27.945312 93.28125 C 28.4375 92.953125 28.957031 92.675781 29.507812 92.449219 C 30.054688 92.21875 30.621094 92.050781 31.203125 91.933594 C 31.785156 91.816406 32.375 91.757812 32.96875 91.757812 C 33.5625 91.757812 34.148438 91.816406 34.730469 91.933594 C 35.3125 92.050781 35.878906 92.21875 36.425781 92.449219 C 36.976562 92.675781 37.496094 92.953125 37.988281 93.28125 C 38.484375 93.613281 38.941406 93.988281 39.359375 94.40625 C 39.78125 94.828125 40.15625 95.285156 40.484375 95.777344 C 40.8125 96.269531 41.09375 96.792969 41.320312 97.339844 C 41.546875 97.890625 41.71875 98.453125 41.835938 99.035156 C 41.949219 99.617188 42.007812 100.207031 42.007812 100.800781 Z M 42.007812 100.800781 " fill-opacity="1" fill-rule="nonzero"/></svg>