<?xml version="1.0" encoding="utf-8"?>
<!-- Uploaded to: SVG Repo, www.svgrepo.com, Generator: SVG Repo Mixer Tools -->
<svg width="800px" height="800px" viewBox="0 0 48 48" fill="none" xmlns="http://www.w3.org/2000/svg">
<g id="share">
<g id="share_2">
<path id="Combined Shape" fill-rule="evenodd" clip-rule="evenodd" d="M30.1004 10.8974C30.6241 8.0777 33.0968 6.00079 35.9992 6.00079C39.3137 6.00079 41.9992 8.68581 41.9992 12.0008C41.9992 15.3145 39.3129 18.0008 35.9992 18.0008C35.0993 18.0008 34.2277 17.8022 33.4312 17.425C32.9321 17.1886 32.3358 17.4017 32.0994 17.9008C31.863 18.3999 32.0761 18.9962 32.5752 19.2326C33.6376 19.7357 34.8013 20.0008 35.9992 20.0008C40.4175 20.0008 43.9992 16.4191 43.9992 12.0008C43.9992 7.58116 40.4181 4.00079 35.9992 4.00079C32.1288 4.00079 28.8329 6.76911 28.134 10.5322C28.0332 11.0752 28.3916 11.5971 28.9346 11.698C29.4776 11.7988 29.9995 11.4404 30.1004 10.8974ZM12 32C16.4183 32 20 28.4183 20 24C20 23.0689 19.8409 22.1749 19.5485 21.3438L36.4472 12.8944C36.9412 12.6474 37.1414 12.0468 36.8944 11.5528C36.6474 11.0588 36.0468 10.8586 35.5528 11.1056L18.6528 19.5555C17.2177 17.4116 14.7737 16 12 16C7.58172 16 4 19.5817 4 24C4 28.4183 7.58172 32 12 32ZM16.8447 20.4596L11.5528 23.1056C11.0588 23.3526 10.8586 23.9532 11.1056 24.4472C11.3526 24.9412 11.9532 25.1414 12.4472 24.8944L17.7402 22.2479C17.9091 22.8022 18 23.3905 18 24C18 27.3137 15.3137 30 12 30C8.68629 30 6 27.3137 6 24C6 20.6863 8.68629 18 12 18C13.9896 18 15.7531 18.9684 16.8447 20.4596ZM36.0008 30.0004C34.9769 30.0004 33.9916 30.2562 33.1161 30.7369C32.632 31.0028 32.0241 30.8258 31.7582 30.3417C31.4924 29.8576 31.6694 29.2497 32.1535 28.9838C33.3222 28.3421 34.6383 28.0004 36.0008 28.0004C40.4177 28.0004 44.0008 31.5828 44.0008 36.0004C44.0008 40.418 40.4177 44.0004 36.0008 44.0004C31.5825 44.0004 28.0008 40.4187 28.0008 36.0004C28.0008 35.0818 28.1546 34.1864 28.4514 33.3437L21.4884 29.8622C20.9944 29.6152 20.7942 29.0146 21.0412 28.5206C21.2882 28.0266 21.8888 27.8264 22.3828 28.0734L36.4468 35.1054C36.9408 35.3524 37.141 35.953 36.894 36.447C36.647 36.941 36.0464 37.1412 35.5524 36.8942L30.2592 34.2476C30.0888 34.8071 30.0008 35.3958 30.0008 36.0004C30.0008 39.3141 32.6871 42.0004 36.0008 42.0004C39.3132 42.0004 42.0008 39.3134 42.0008 36.0004C42.0008 32.6874 39.3132 30.0004 36.0008 30.0004Z" fill="#000000"/>
</g>
</g>
</svg>