<?xml version="1.0" encoding="utf-8"?>
<!-- Uploaded to: SVG Repo, www.svgrepo.com, Generator: SVG Repo Mixer Tools -->
<svg width="800px" height="800px" viewBox="0 0 48 48" fill="none" xmlns="http://www.w3.org/2000/svg">
<g id="warning">
<g id="warning_2">
<path id="Combined Shape" fill-rule="evenodd" clip-rule="evenodd" d="M44.0006 24.0002C44.0006 31.1617 40.2039 37.6662 34.1486 41.2376C33.6729 41.5182 33.0598 41.36 32.7793 40.8843C32.4987 40.4086 32.6569 39.7955 33.1326 39.5149C38.5842 36.2996 42.0006 30.4465 42.0006 24.0002C42.0006 14.0585 33.9423 6.00024 24.0006 6.00024C14.0589 6.00024 6.00061 14.0585 6.00061 24.0002C6.00061 32.1408 11.4496 39.2041 19.1933 41.3525C19.4778 41.4356 19.9645 41.5638 20.5489 41.692C20.7425 41.7344 20.9344 41.7739 21.1234 41.8098C21.666 41.913 22.0222 42.4365 21.919 42.979C21.8159 43.5216 21.2924 43.8778 20.7498 43.7746C20.5419 43.7351 20.3316 43.6919 20.1203 43.6455C19.4859 43.5063 18.9569 43.3671 18.6453 43.2759C10.0544 40.8926 4.00061 33.0453 4.00061 24.0002C4.00061 12.954 12.9543 4.00024 24.0006 4.00024C35.0469 4.00024 44.0006 12.954 44.0006 24.0002ZM20.9834 26.9104C20.9834 28.5853 22.3497 29.9524 24.0254 29.9524C25.7012 29.9524 27.0674 28.5853 27.0674 26.9104V14.9944C27.0674 13.3182 25.7017 11.9524 24.0254 11.9524C22.3491 11.9524 20.9834 13.3182 20.9834 14.9944V26.9104ZM25.0674 26.9104C25.0674 27.481 24.5963 27.9524 24.0254 27.9524C23.4545 27.9524 22.9834 27.481 22.9834 26.9104V14.9944C22.9834 14.4227 23.4537 13.9524 24.0254 13.9524C24.5971 13.9524 25.0674 14.4227 25.0674 14.9944V26.9104ZM22.9741 34.8879C22.9869 34.8215 23.0533 34.6327 23.0991 34.5388C23.3411 34.0438 23.9365 33.8377 24.4312 34.0781C24.926 34.3185 25.1316 34.9139 24.8908 35.4096C24.7623 35.6743 24.5295 35.8627 24.2461 35.9391C23.7128 36.0827 23.397 36.6315 23.5406 37.1647C23.6843 37.698 24.233 38.0139 24.7663 37.8702C25.6018 37.6452 26.3052 37.076 26.6899 36.2832C27.413 34.7949 26.7939 33.0025 25.3052 32.2792C23.8177 31.5564 22.0281 32.1758 21.3018 33.6614C21.1827 33.9058 21.0586 34.2585 21.0103 34.5094C20.9057 35.0517 21.2606 35.576 21.8029 35.6806C22.3452 35.7851 22.8696 35.4302 22.9741 34.8879Z" fill="#000000"/>
</g>
</g>
</svg>