<?xml version="1.0" encoding="utf-8"?>
<!-- Uploaded to: SVG Repo, www.svgrepo.com, Generator: SVG Repo Mixer Tools -->
<svg width="800px" height="800px" viewBox="0 0 48 48" fill="none" xmlns="http://www.w3.org/2000/svg">
<g id="wifi">
<g id="wifi_2">
<path id="Combined Shape" fill-rule="evenodd" clip-rule="evenodd" d="M23.9536 10.0006C17.0295 10.0006 10.5374 12.7184 5.70143 17.483C5.30801 17.8706 4.67487 17.8659 4.28726 17.4724C3.89965 17.079 3.90436 16.4459 4.29778 16.0583C9.50422 10.9287 16.4988 8.00061 23.9536 8.00061C26.0641 8.00061 28.1446 8.23362 30.1682 8.69124C30.7069 8.81306 31.0448 9.3485 30.923 9.88718C30.8012 10.4259 30.2657 10.7638 29.727 10.642C27.848 10.217 25.9155 10.0006 23.9536 10.0006ZM33.5607 11.8326C36.8087 13.1242 39.7591 15.0618 42.2404 17.5198C42.6328 17.9085 43.266 17.9055 43.6546 17.5132C44.0433 17.1208 44.0403 16.4877 43.648 16.099C40.9762 13.4523 37.7987 11.3655 34.2997 9.97418C33.7865 9.77011 33.205 10.0207 33.001 10.5339C32.7969 11.0471 33.0475 11.6286 33.5607 11.8326ZM23.954 16.0004C18.5755 16.0004 13.5379 18.1307 9.81111 21.8575C9.42059 22.248 8.78742 22.248 8.3969 21.8575C8.00637 21.467 8.00637 20.8338 8.3969 20.4433C12.4951 16.3451 18.0396 14.0004 23.954 14.0004C29.8664 14.0004 35.4107 16.345 39.5109 20.4431C39.9016 20.8335 39.9017 21.4667 39.5113 21.8573C39.1209 22.248 38.4877 22.2481 38.0971 21.8577C34.3681 18.1307 29.3306 16.0004 23.954 16.0004ZM23.9526 21.9992C22.8462 21.9992 21.752 22.1294 20.6845 22.3839C20.1473 22.512 19.608 22.1804 19.4799 21.6431C19.3518 21.1059 19.6834 20.5666 20.2207 20.4385C21.4391 20.148 22.689 19.9992 23.9526 19.9992C28.2539 19.9992 32.2869 21.7053 35.2677 24.6861C35.6582 25.0766 35.6582 25.7098 35.2677 26.1003C34.8772 26.4908 34.244 26.4908 33.8535 26.1003C31.244 23.4909 27.718 21.9992 23.9526 21.9992ZM18.2965 30.3429C19.7875 28.8519 21.8018 27.9998 23.9534 27.9998C26.105 27.9998 28.1193 28.8519 29.6103 30.3429C30.0008 30.7334 30.634 30.7334 31.0245 30.3429C31.415 29.9524 31.415 29.3192 31.0245 28.9287C29.1622 27.0664 26.641 25.9998 23.9534 25.9998C21.2658 25.9998 18.7446 27.0664 16.8823 28.9287C16.4918 29.3192 16.4918 29.9524 16.8823 30.3429C17.2728 30.7334 17.906 30.7334 18.2965 30.3429ZM23.9536 40C26.1639 40 27.9536 38.2103 27.9536 36C27.9536 33.7897 26.1639 32 23.9536 32C21.7433 32 19.9536 33.7897 19.9536 36C19.9536 38.2103 21.7433 40 23.9536 40ZM23.9536 34C25.0593 34 25.9536 34.8943 25.9536 36C25.9536 37.1057 25.0593 38 23.9536 38C22.8479 38 21.9536 37.1057 21.9536 36C21.9536 34.8943 22.8479 34 23.9536 34ZM14.0543 26.1007C14.9834 25.1717 16.0409 24.3753 17.1928 23.7389C17.6762 23.4718 17.8516 22.8634 17.5845 22.38C17.3174 21.8966 16.709 21.7212 16.2256 21.9883C14.9095 22.7155 13.7015 23.6251 12.6401 24.6865C12.2496 25.077 12.2496 25.7102 12.6401 26.1007C13.0306 26.4912 13.6638 26.4912 14.0543 26.1007Z" fill="#000000"/>
</g>
</g>
</svg>